<?xml version="1.0" encoding="utf-8"?><svg xml:space="preserve" viewBox="0 0 100 100" y="0" x="0" xmlns="http://www.w3.org/2000/svg" id="Layer_1" version="1.1" width="47px" height="47px" xmlns:xlink="http://www.w3.org/1999/xlink" style="width:100%;height:100%;background-color:rgb(255, 255, 255);animation-play-state:paused" ><g class="ldl-scale" style="transform-origin:50% 50% 0px;transform:rotate(0deg) scale(0.8);animation-play-state:paused" ><circle r="39" stroke-miterlimit="10" fill="#f0af6b" stroke="#333" stroke-width="3.5" cy="50.368" cx="49.737" transform="rotate(-88.361 49.737 50.368)" style="stroke:rgb(51, 51, 51);fill:rgb(240, 175, 107);animation-play-state:paused" ></circle>
<path stroke-miterlimit="10" fill="#f0af6b" stroke-linecap="round" stroke="#fff" stroke-width="3.5" d="M23.064 33.103a39.03 39.03 0 0 1 4.212-5.484" style="stroke:rgb(255, 255, 255);fill:rgb(240, 175, 107);animation-play-state:paused" ></path>
<path stroke-miterlimit="10" fill="#f0af6b" stroke-linecap="round" stroke="#fff" stroke-width="3.5" d="M20.016 38.936c.236-.564.485-1.121.747-1.671" style="stroke:rgb(255, 255, 255);fill:rgb(240, 175, 107);animation-play-state:paused" ></path>
<path fill="#333" d="M57.319 40.823l11.069-19.172-1.513-.875C61.757 17.815 55.922 16.25 50 16.25s-11.757 1.565-16.875 4.526l-1.513.875 11.069 19.172c2.01-1.606 4.552-2.573 7.319-2.573s5.309.967 7.319 2.573z" style="fill:rgb(51, 51, 51);animation-play-state:paused" ></path>
<path fill="#333" d="M61.605 48.25c.086.573.145 1.154.145 1.75 0 4.965-3.1 9.21-7.461 10.928l11.07 19.173 1.516-.877C77.284 73.201 83.75 62.003 83.75 50v-1.75H61.605z" style="fill:rgb(51, 51, 51);animation-play-state:paused" ></path>
<path fill="#333" d="M38.25 50c0-.596.059-1.177.145-1.75H16.25V50c0 12.003 6.466 23.201 16.875 29.224l1.516.877 11.07-19.173C41.35 59.21 38.25 54.965 38.25 50z" style="fill:rgb(51, 51, 51);animation-play-state:paused" ></path>
<path fill="#333" d="M58.059 48.25a8.237 8.237 0 0 0-2.519-4.345c-1.466-1.334-3.406-2.155-5.54-2.155s-4.074.821-5.54 2.155A8.245 8.245 0 0 0 41.75 50c0 3.672 2.413 6.789 5.736 7.855a8.196 8.196 0 0 0 5.028 0c3.323-1.066 5.736-4.183 5.736-7.855a8.21 8.21 0 0 0-.191-1.75z" style="fill:rgb(51, 51, 51);animation-play-state:paused" ></path>
<path stroke-miterlimit="10" stroke-width="3.5" stroke="#000" stroke-linejoin="round" opacity=".2" d="M75.218 20.261c4.114 11.738 3.135 26.091-3.814 39.107-8.334 15.61-23.041 25.161-37.621 26.099A38.845 38.845 0 0 0 50 89c21.539 0 39-17.461 39-39 0-11.921-5.354-22.585-13.782-29.739z" style="stroke:rgb(0, 0, 0);animation-play-state:paused" ></path>
<metadata xmlns:d="https://loading.io/stock/" style="animation-play-state:paused" ><d:name style="animation-play-state:paused" >nuclear</d:name>


<d:tags style="animation-play-state:paused" >nuclear,radiation,nuke,radioactive,hazard,ionizing,x ray</d:tags>


<d:license style="animation-play-state:paused" >by</d:license>


<d:slug style="animation-play-state:paused" >mqf784</d:slug></metadata></g><!-- generated by https://loading.io/ --></svg>